<svg width="170" height="47" viewBox="0 0 170 47" fill="none" xmlns="http://www.w3.org/2000/svg">
<g clip-path="url(#clip0_2001_6095)">
<path d="M110.252 22.933L100.45 39.1062C99.8464 40.06 99.1061 40.5438 98.215 40.5577C97.2964 40.5715 96.8988 40.2536 96.9948 39.6177C97.0359 39.3689 97.1319 39.1339 97.2827 38.8989L106.907 22.9607L99.2158 23.0574L87.919 41.7327C87.59 42.2579 87.3843 42.7417 87.3158 43.1564C87.2061 43.8891 87.3706 44.4697 87.8505 44.912C88.3166 45.3544 89.0569 45.5755 90.0577 45.5617L99.8601 45.4511C100.642 45.4373 101.327 45.3958 101.93 45.3129C102.534 45.2299 103.096 45.0641 103.589 44.8152C104.096 44.5664 104.563 44.2347 104.988 43.7923C105.413 43.3638 105.838 42.797 106.263 42.1059L117.93 22.8086L110.252 22.933Z" fill="#343434"/>
<path d="M88.3573 28.1038L83.9702 35.3472L83.6686 35.831L77.6775 45.7285L69.9863 45.8252L75.9912 35.9001L76.471 35.1122L80.6525 28.2005L74.9629 28.2697L77.9654 23.3071L96.35 23.0859L93.3476 28.0485L88.3573 28.1038Z" fill="#343434"/>
<path d="M152.628 35.693L147.007 35.7621L144.403 40.0335L150.024 39.9644L147.021 44.9269L133.709 45.079L140.578 33.7301L140.838 33.2877L140.879 33.2186L141.167 32.7348L147.364 22.5056L160.676 22.3535L157.674 27.3161L152.053 27.3852L149.996 30.7995L155.617 30.7304L154.465 32.638L154.178 33.1218L152.628 35.693Z" fill="#343434"/>
<path d="M139.647 26.4586L135.836 32.7758L135.548 33.2596L128.35 45.1338L120.659 45.2306L127.871 33.3149L128.172 32.8311L130.421 29.1126C130.517 28.9606 130.571 28.7809 130.599 28.6012C130.709 27.9377 130.379 27.6197 129.598 27.6335L127.994 27.6474L117.314 45.272L109.623 45.3688L123.292 22.7954L137.495 22.6295C138.496 22.6157 139.236 22.8369 139.702 23.2792C140.168 23.7216 140.346 24.3298 140.223 25.0762C140.196 25.2559 140.127 25.4633 140.045 25.6845C139.963 25.9056 139.825 26.1683 139.647 26.4586Z" fill="#343434"/>
<path fill-rule="evenodd" clip-rule="evenodd" d="M58.1284 22.643L51.0542 38.5259L50.876 38.9406L50.547 39.6733L47.6954 46.0734L-0.494141 46.654L5.90828 40.0327L6.62118 39.3L21.976 23.4171L22.401 22.9747L22.4421 22.9333L23.1551 22.2006L27.5147 17.6943L43.6236 17.5007L39.5107 22.0486L38.7704 22.8642L26.6099 36.3142L36.3301 36.2036L42.472 22.9747L42.5405 22.8365L42.5817 22.7536L42.9244 22.0071L47.1607 12.8561C47.2292 12.7179 47.2841 12.5935 47.3252 12.4691C47.3663 12.3585 47.3938 12.2064 47.4349 12.0129C47.5994 11.0038 47.0784 10.4923 45.8446 10.52L31.4357 10.7135L37.4131 0.636337L61.405 0.346049C62.9954 0.332225 64.1744 0.7331 64.9421 1.54867C65.7099 2.36425 65.9841 3.48393 65.751 4.92155C65.6551 5.51595 65.422 6.22094 65.0792 7.00887L58.4575 21.8965L58.1284 22.643Z" fill="#FF0000"/>
<path d="M70.7951 31.5859L61.1298 31.6965L57.9766 36.8111H67.6008L70.7951 31.5859Z" fill="#343434"/>
</g>
<defs>
<clipPath id="clip0_2001_6095">
<rect width="170" height="47" fill="white"/>
</clipPath>
</defs>
</svg>
